<svg xmlns="http://www.w3.org/2000/svg" viewBox="0 0 292.38 117.41"><defs><style>.cls-1{fill:#303f9f;}.cls-2{fill:#141433;}</style></defs><title>자산 1</title><g id="레이어_2" data-name="레이어 2"><g id="레이어_1-2" data-name="레이어 1"><path class="cls-1" d="M117.92,58.71a53.25,53.25,0,0,1,2.73,16.78c0,.23,0,.45,0,.68a45.28,45.28,0,0,0,5.06-17.46h0a45.28,45.28,0,0,0-5.06-17.46c0,.23,0,.45,0,.68A53.36,53.36,0,0,1,117.92,58.71Z"/><path class="cls-1" d="M101.88,32.65c.25.93.37,1.87.57,2.81h0c.88.77,1.78,1.52,2.61,2.35a53.54,53.54,0,0,1,8.61,11.38V41.93a45.86,45.86,0,0,0-1.61-12l0,0A45.42,45.42,0,0,0,96.59,20,53.35,53.35,0,0,1,101.88,32.65Z"/><path class="cls-1" d="M73.32,17.67a53.72,53.72,0,0,1,8.93,6.73,53,53,0,0,1,10.66,4.4h0a45.66,45.66,0,0,0-6.56-11.28h0a45.83,45.83,0,0,0-13,.15Z"/><path class="cls-1" d="M113.68,75.48V68.22a53.54,53.54,0,0,1-8.61,11.38c-.83.83-1.73,1.58-2.61,2.35h0c-.2.93-.32,1.87-.57,2.8a53.18,53.18,0,0,1-5.29,12.62,45.42,45.42,0,0,0,15.46-9.84l0,0A45.86,45.86,0,0,0,113.68,75.48Z"/><path class="cls-1" d="M103.73,70.32a45,45,0,0,0,6.69-11.61s0,0,0,0a45,45,0,0,0-6.69-11.61s0,0,0,0a52.62,52.62,0,0,1-1.49,11.62,52.53,52.53,0,0,1,1.49,11.61S103.73,70.33,103.73,70.32Z"/><path class="cls-1" d="M76.55,117.41a45.66,45.66,0,0,0,16.87-3.86h0a46,46,0,0,0,12.69-12.94h0A53.17,53.17,0,0,1,90,106.48,53.69,53.69,0,0,1,76.55,117.4Z"/><path class="cls-1" d="M73.32,99.75a45.47,45.47,0,0,0,13,.15h0a46,46,0,0,0,6.56-11.28h0A53.6,53.6,0,0,1,82.25,93a54.21,54.21,0,0,1-8.93,6.72Z"/><path class="cls-1" d="M35.64,106.48a53.45,53.45,0,0,1-16.06-5.88s0,0,0,0a46.09,46.09,0,0,0,12.69,12.93h0a45.61,45.61,0,0,0,16.86,3.86s0,0,0,0A54.13,54.13,0,0,1,35.64,106.48Z"/><path class="cls-1" d="M66,105.65c-1.08-.3-2.12-.69-3.18-1.05h0c-1,.36-2.09.75-3.17,1a53.38,53.38,0,0,1-12.88,1.78h0a45.81,45.81,0,0,0,16,8.25s0,0,0,0a45.79,45.79,0,0,0,16-8.24h0A53.8,53.8,0,0,1,66,105.65Z"/><path class="cls-1" d="M7.77,58.71A53.38,53.38,0,0,1,5,41.91c0-.22,0-.44,0-.66A45.34,45.34,0,0,0,0,58.7H0A45.34,45.34,0,0,0,5.05,76.16c0-.22,0-.44,0-.66A53.32,53.32,0,0,1,7.77,58.71Z"/><path class="cls-1" d="M23.8,84.76c-.25-.93-.36-1.88-.56-2.81h0c-.88-.77-1.78-1.51-2.62-2.34A54.21,54.21,0,0,1,12,68.22v7.26a46.14,46.14,0,0,0,1.6,12l0,0a45.44,45.44,0,0,0,15.46,9.85A54.2,54.2,0,0,1,23.8,84.76Z"/><path class="cls-1" d="M32.76,88.6a45.87,45.87,0,0,0,6.55,11.29h0a45.77,45.77,0,0,0,13-.15h0A53.85,53.85,0,0,1,43.4,93a53.39,53.39,0,0,1-10.64-4.4Z"/><path class="cls-1" d="M49.13,0A45.7,45.7,0,0,0,32.26,3.86h0A46.1,46.1,0,0,0,19.57,16.81s0,0,0,0a53.16,53.16,0,0,1,16.06-5.87A54,54,0,0,1,49.13,0S49.13,0,49.13,0Z"/><path class="cls-1" d="M12,41.93v7.26a53.9,53.9,0,0,1,8.61-11.37c.84-.84,1.74-1.58,2.62-2.35h0c.2-.93.31-1.88.56-2.81A53.94,53.94,0,0,1,29.09,20a45.42,45.42,0,0,0-15.46,9.84l0,0A46.25,46.25,0,0,0,12,41.93Z"/><path class="cls-1" d="M22,47.09a45,45,0,0,0-6.7,11.61h0A45,45,0,0,0,22,70.32s0,0,0,0a52.46,52.46,0,0,1,1.49-11.61A52.62,52.62,0,0,1,22,47.09S22,47.08,22,47.09Z"/><path class="cls-1" d="M90,10.93a53.43,53.43,0,0,1,16.07,5.89s0,0,0,0A46,46,0,0,0,93.43,3.87h0A45.61,45.61,0,0,0,76.55,0h0A53.91,53.91,0,0,1,90,10.93Z"/><path class="cls-1" d="M59.66,11.77c1.08.29,2.12.68,3.17,1h0c1.06-.36,2.1-.75,3.18-1A52.81,52.81,0,0,1,78.88,10h0a45.64,45.64,0,0,0-16-8.25h0a45.81,45.81,0,0,0-16,8.25h0A53.38,53.38,0,0,1,59.66,11.77Z"/><path class="cls-1" d="M52.34,17.66a45.76,45.76,0,0,0-13-.15h0a45.87,45.87,0,0,0-6.55,11.29h0a53.74,53.74,0,0,1,10.64-4.4,53.85,53.85,0,0,1,8.94-6.74Z"/><path class="cls-2" d="M156.25,37.19h9.25v2.46H153.45V22.58h11.81V25h-9v4.7h8.05V32h-8.05Z"/><path class="cls-2" d="M167.73,31.11c0-5.34,3.8-9.13,9.27-9.13s9.31,3.79,9.31,9.13-3.81,9.14-9.31,9.14S167.73,36.49,167.73,31.11Zm2.89,0a6.4,6.4,0,1,0,12.79,0,6.4,6.4,0,1,0-12.79,0Z"/><path class="cls-2" d="M196.39,40.25c-4.26,0-7.35-2.6-7.35-6.17h2.75c0,2.19,1.93,3.78,4.67,3.78,2.44,0,3.86-1.25,3.86-3,0-1.95-2.17-2.24-4.58-2.58-3.2-.43-6.48-1-6.48-4.94,0-3.16,2.67-5.4,6.65-5.4s6.89,2.46,6.89,5.86h-2.67c0-2-1.76-3.47-4.2-3.47s-3.8,1.15-3.8,2.72c0,1.95,2,2.27,4.43,2.6,3.18.44,6.63,1,6.63,4.85C203.19,37.86,200.56,40.25,196.39,40.25Z"/><path class="cls-2" d="M170.35,64.67l4-15h3l-4.69,17.06h-4.46l-3.33-13.8-3.3,13.8h-4.48l-4.72-17.06h3l4,15,3.62-15h3.8Z"/><path class="cls-2" d="M179.12,58.21c0-5.35,3.81-9.13,9.28-9.13s9.3,3.78,9.3,9.13-3.81,9.14-9.3,9.14S179.12,63.59,179.12,58.21Zm2.89,0a6.4,6.4,0,1,0,12.8,0,6.4,6.4,0,1,0-12.8,0Z"/><path class="cls-2" d="M204.21,66.74h-2.89V49.68h7.86c3.73,0,6.41,2.29,6.41,5.55a5.2,5.2,0,0,1-4,4.91l4.26,6.6h-3.32l-3.76-6.16h-4.58Zm0-14.67v6.19h4.63c2.21,0,3.85-1.28,3.85-3,0-2-1.61-3.16-3.85-3.16Z"/><path class="cls-2" d="M219.32,49.68h2.89v7.09l6.58-7.09h3.62l-7.62,8,7.83,9H229l-6.78-8v8h-2.89Z"/><path class="cls-2" d="M238.05,64.29h9.25v2.45H235.25V49.68h11.81v2.46h-9v4.7h8v2.22h-8Z"/><path class="cls-2" d="M253.64,66.74h-2.89V49.68h7.86c3.73,0,6.41,2.29,6.41,5.55a5.2,5.2,0,0,1-4,4.91l4.27,6.6H262l-3.76-6.16h-4.58Zm0-14.67v6.19h4.63c2.22,0,3.85-1.28,3.85-3,0-2-1.61-3.16-3.85-3.16Z"/><path class="cls-2" d="M156.25,88.64v5.2h-2.8V76.78h6.61c4,0,6.86,2.48,6.86,5.93s-2.86,5.93-6.89,5.93Zm0-9.47v7.06h3.32c2.61,0,4.49-1.47,4.46-3.52s-1.85-3.54-4.46-3.54Z"/><path class="cls-2" d="M172.86,93.84H170V76.78h7.85c3.74,0,6.41,2.29,6.41,5.54a5.19,5.19,0,0,1-4,4.92l4.26,6.6H181.2l-3.76-6.17h-4.58Zm0-14.67v6.19h4.63c2.21,0,3.85-1.28,3.85-3,0-2-1.61-3.15-3.85-3.15Z"/><path class="cls-2" d="M187,85.31c0-5.35,3.81-9.13,9.28-9.13s9.3,3.78,9.3,9.13-3.81,9.14-9.3,9.14S187,90.69,187,85.31Zm2.89,0a6.4,6.4,0,1,0,6.39-6.6A6.29,6.29,0,0,0,189.85,85.31Z"/><path class="cls-2" d="M212,88.64v5.2h-2.8V76.78h6.6c4,0,6.87,2.48,6.87,5.93s-2.87,5.93-6.89,5.93Zm0-9.47v7.06h3.32c2.61,0,4.48-1.47,4.46-3.52s-1.85-3.54-4.46-3.54Z"/><path class="cls-2" d="M225.14,85.31c0-5.35,3.81-9.13,9.28-9.13s9.3,3.78,9.3,9.13-3.81,9.14-9.3,9.14S225.14,90.69,225.14,85.31Zm2.89,0a6.4,6.4,0,1,0,6.39-6.6A6.28,6.28,0,0,0,228,85.31Z"/><path class="cls-2" d="M253.81,94.45c-4.27,0-7.35-2.61-7.35-6.17h2.74c0,2.19,1.93,3.78,4.68,3.78,2.43,0,3.85-1.25,3.85-3,0-2-2.17-2.25-4.58-2.58-3.2-.44-6.48-1-6.48-4.94,0-3.16,2.68-5.4,6.65-5.4s6.9,2.46,6.9,5.85h-2.68c0-2-1.76-3.47-4.19-3.47s-3.81,1.16-3.81,2.73c0,1.95,2,2.26,4.43,2.6,3.18.43,6.63,1,6.63,4.84C260.6,92.06,258,94.45,253.81,94.45Z"/><path class="cls-2" d="M265.42,93.84h-3.08l6.09-17.06h4.2l6.07,17.06h-3.06l-1.13-3.18h-8Zm1.76-5.35h6.72l-3.37-9.2Z"/><path class="cls-2" d="M281.44,93.84V76.78h2.89V91.34h8.05v2.5Z"/></g></g></svg>